<svg id="Layer_1" enable-background="new 0 0 64 64" height="512" viewBox="0 0 64 64" width="512" xmlns="http://www.w3.org/2000/svg"><circle cx="32" cy="32" fill="#cadfdc" r="9"/><circle cx="32" cy="32" fill="#cadfdc" r="3"/><circle cx="11" cy="47" fill="#ffb56d" r="1"/><circle cx="25" cy="55" fill="#a0ceff" r="1"/><circle cx="47" cy="53" fill="#c69c6d" r="1"/><circle cx="9" cy="25" fill="#c69c6d" r="1"/><circle cx="17" cy="11" fill="#fe7101" r="1"/><circle cx="39" cy="10" fill="#a0ceff" r="1"/><circle cx="52" cy="17" fill="#ffb56d" r="1"/><circle cx="55" cy="39" fill="#fe7101" r="1"/><path d="m56 16.5c-.276 0-.5.224-.5.5 0 11.144-7.8 20.495-18.226 22.896.509-.341.984-.73 1.417-1.16.008-.007.019-.01.027-.018 8.273-8.274 9.539-21.311 3.011-30.997-.155-.229-.467-.289-.694-.136-.229.154-.29.466-.136.694 5.246 7.782 5.226 17.809.424 25.527.113-.585.177-1.188.177-1.806 0-13.51-10.99-24.5-24.5-24.5-.276 0-.5.224-.5.5s.224.5.5.5c11.144 0 20.495 7.8 22.896 18.226-.341-.509-.73-.984-1.16-1.417-.007-.008-.01-.019-.018-.027-8.275-8.275-21.311-9.537-30.997-3.011-.229.154-.29.466-.136.694.155.229.466.289.694.136 7.781-5.246 17.809-5.226 25.527-.424-.585-.113-1.188-.177-1.806-.177-13.51 0-24.5 10.99-24.5 24.5 0 .276.224.5.5.5s.5-.224.5-.5c0-11.144 7.8-20.495 18.226-22.896-.509.341-.984.73-1.417 1.16-.008.007-.019.01-.027.018-8.273 8.274-9.539 21.311-3.011 30.997.097.144.255.221.415.221.097 0 .193-.027.279-.085.229-.154.29-.466.136-.694-5.246-7.782-5.226-17.809-.424-25.527-.113.585-.177 1.188-.177 1.806 0 13.51 10.99 24.5 24.5 24.5.276 0 .5-.224.5-.5s-.224-.5-.5-.5c-11.144 0-20.495-7.8-22.896-18.226.341.509.73.984 1.16 1.417.007.008.01.019.018.027 4.732 4.732 11.022 7.172 17.353 7.172 4.738 0 9.498-1.367 13.645-4.161.229-.154.29-.466.136-.694-.155-.229-.466-.289-.694-.136-7.782 5.246-17.81 5.226-25.528.424.585.113 1.188.177 1.806.177 13.51 0 24.5-10.99 24.5-24.5 0-.276-.224-.5-.5-.5zm-24 7c4.687 0 8.5 3.813 8.5 8.5s-3.813 8.5-8.5 8.5-8.5-3.813-8.5-8.5 3.813-8.5 8.5-8.5z" fill="#e3edec"/><path d="m32 35.5c.54 0 1.046-.133 1.504-.353-.996 1.42-2.642 2.353-4.504 2.353-.276 0-.5.224-.5.5s.224.5.5.5c3.584 0 6.5-2.916 6.5-6.5 0-.54-.133-1.046-.353-1.504 1.42.996 2.353 2.642 2.353 4.504 0 .276.224.5.5.5s.5-.224.5-.5c0-3.584-2.916-6.5-6.5-6.5-.54 0-1.046.133-1.504.353.996-1.42 2.642-2.353 4.504-2.353.276 0 .5-.224.5-.5s-.224-.5-.5-.5c-3.584 0-6.5 2.916-6.5 6.5 0 .54.133 1.046.353 1.504-1.42-.996-2.353-2.642-2.353-4.504 0-.276-.224-.5-.5-.5s-.5.224-.5.5c0 3.584 2.916 6.5 6.5 6.5zm-2.5-3.5c0-1.379 1.121-2.5 2.5-2.5s2.5 1.121 2.5 2.5-1.121 2.5-2.5 2.5-2.5-1.121-2.5-2.5z" fill="#b6ccc8"/></svg>